<?xml version="1.0" standalone="no"?>
<!DOCTYPE svg PUBLIC "-//W3C//DTD SVG 20010904//EN"
 "http://www.w3.org/TR/2001/REC-SVG-20010904/DTD/svg10.dtd">
<svg version="1.0" xmlns="http://www.w3.org/2000/svg"
 width="1100.000000pt" height="699.000000pt" viewBox="0 0 1100.000000 699.000000"
 preserveAspectRatio="xMidYMid meet">

<g transform="translate(0.000000,699.000000) scale(0.100000,-0.100000)"
fill="#000000" stroke="none">
<path d="M8439 6893 c-57 -42 -270 -199 -474 -348 -203 -149 -687 -505 -1075
-790 -387 -285 -710 -518 -718 -519 -14 -1 -48 52 -439 691 l-210 343 -73
-253 c-40 -138 -112 -387 -160 -552 -48 -165 -92 -299 -98 -298 -5 1 -565 253
-1243 559 -1861 839 -1872 844 -1875 841 -1 -1 34 -43 79 -93 99 -109 590
-652 775 -857 74 -81 243 -269 377 -417 l244 -270 -27 -45 c-21 -35 -33 -44
-54 -45 -49 0 -1922 -140 -1925 -144 -3 -3 271 -159 1439 -817 219 -123 394
-226 390 -230 -4 -3 -752 -88 -1662 -188 -910 -101 -1656 -184 -1657 -185 -1
-1 766 -93 1705 -204 939 -112 1714 -206 1723 -208 14 -4 30 -47 33 -85 1 -7
0 -8 -884 -649 -322 -233 -736 -534 -920 -668 -184 -133 -344 -249 -355 -257
-22 -16 66 13 410 133 127 44 730 254 1340 465 611 212 1234 428 1386 481 152
53 279 96 282 96 16 0 48 84 -684 -1809 -110 -283 -197 -516 -195 -518 2 -3
399 486 883 1086 483 600 881 1089 884 1088 4 -1 147 -150 319 -332 171 -181
317 -330 322 -330 6 0 146 190 312 422 166 232 306 422 311 422 6 1 89 -67
185 -150 96 -83 247 -213 335 -289 88 -76 311 -268 495 -427 184 -158 565
-486 845 -727 281 -242 521 -448 534 -460 13 -12 -25 47 -84 129 -60 83 -331
458 -604 835 -774 1072 -811 1123 -809 1126 2 1 518 -18 1148 -42 630 -24
1171 -43 1203 -42 l58 3 -383 212 c-211 117 -615 341 -898 498 -283 157 -516
289 -518 294 -1 4 125 40 280 79 156 40 725 183 1265 319 540 136 981 248 980
249 -1 1 -483 -4 -1072 -12 -588 -7 -1125 -13 -1192 -13 l-123 -1 0 98 0 97
933 619 c512 341 936 623 941 627 5 4 0 6 -10 3 -26 -6 -2410 -394 -2422 -394
-5 0 24 116 64 258 380 1335 473 1666 470 1669 -1 2 -50 -31 -107 -74z m-2767
-2015 c52 -15 117 -74 150 -134 51 -94 58 -148 58 -436 0 -290 -2 -301 -60
-388 -66 -99 -66 -90 -10 -166 28 -38 55 -86 61 -108 6 -24 9 -145 7 -325 -5
-316 -9 -346 -71 -438 -46 -69 -112 -110 -189 -118 -35 -3 -475 -5 -978 -3
l-915 3 -32 23 c-64 46 -63 22 -63 1059 0 1025 -3 975 60 1008 16 8 53 19 82
24 85 14 1853 13 1900 -1z m2591 -21 c59 -35 109 -102 139 -187 21 -62 22 -81
26 -426 2 -231 0 -382 -7 -419 -29 -157 -172 -329 -340 -413 l-75 -37 -570 -5
-570 -5 -20 -35 c-19 -31 -22 -57 -26 -240 -6 -226 -15 -262 -73 -304 -27 -20
-42 -21 -251 -21 -244 0 -259 3 -291 64 -33 65 -36 157 -33 1046 3 924 3 917
47 969 40 46 18 46 1036 43 l960 -2 48 -28z"/>
<path d="M4304 4329 c-25 -27 -27 -158 -4 -204 l15 -30 426 -3 425 -2 21 22
c47 52 60 180 22 214 -20 18 -44 19 -453 22 -431 3 -432 3 -452 -19z"/>
<path d="M4318 3548 c-24 -18 -38 -61 -38 -119 0 -50 19 -111 38 -123 20 -12
853 -7 868 5 24 20 45 93 42 148 -3 46 -7 57 -31 75 -28 20 -40 21 -445 24
-329 2 -421 0 -434 -10z"/>
<path d="M6863 4345 c-12 -9 -27 -32 -33 -53 -14 -50 -13 -281 1 -323 25 -73
2 -69 404 -69 404 0 437 4 492 62 48 51 53 69 53 187 0 127 -17 187 -57 202
-13 5 -207 9 -431 9 -350 0 -411 -2 -429 -15z"/>
</g>
</svg>
