<svg xmlns="http://www.w3.org/2000/svg" viewBox="0 0 118.8 122.4"><title>cargo</title><path d="M105.06,85.9,82.56,63.4l-1.8,1.5-2.5-2.6h0a36.78,36.78,0,1,0-8.1,8.27l2.25,2.33-1.6,1.6,24,24a7.47,7.47,0,0,0,5.7,2.6,8.16,8.16,0,0,0,8-8.3A8.32,8.32,0,0,0,105.06,85.9ZM48.16,69a28,28,0,1,1,28.1-27.9A28,28,0,0,1,48.16,69Z" style="fill:#ed3237;fill-rule:evenodd"/><path d="M48.16,13.1A28,28,0,1,1,20.06,41a28,28,0,0,1,28.1-27.9Z" style="fill:none"/><path d="M41.06,58.5v3.3a1.32,1.32,0,0,1-1.3,1.3h-2.1a1.32,1.32,0,0,1-1.3-1.3V58.5Z" style="fill:#013d73;fill-rule:evenodd"/><path d="M60.06,58.5v3.3a1.32,1.32,0,0,1-1.3,1.3h-2.1a1.32,1.32,0,0,1-1.3-1.3V58.5Z" style="fill:#013d73;fill-rule:evenodd"/><path d="M63.26,53.7v1.5a1.58,1.58,0,0,1-1.56,1.6h-27a1.58,1.58,0,0,1-1.6-1.56V53.7Z" style="fill:#013d73;fill-rule:evenodd"/><path d="M61.56,38.4V29.7A2.58,2.58,0,0,0,59,27.1H37.46a2.58,2.58,0,0,0-2.6,2.56V38.4a2.58,2.58,0,0,0-1.7,2.4V51.9h30.1V40.8A2.49,2.49,0,0,0,61.56,38.4Zm-23.8-6.3A2.24,2.24,0,0,1,40,29.9H56.36a2.24,2.24,0,0,1,2.3,2.18V37.5H37.76Zm20.8,6.4v.8H37.86v-.8Zm-19,11.9H38a1.54,1.54,0,0,1-1.5-1.5,1.47,1.47,0,0,1,1.44-1.5H39.6a1.5,1.5,0,0,1,0,3Zm14.2.1H42.66V49h11.1Zm0-3.2H42.66V45.8h11.1Zm0-3.2H42.66V42.6h11.1Zm4.8,6.4H57a1.5,1.5,0,0,1,0-3h1.6a1.5,1.5,0,0,1,0,3Z" style="fill:#013d73"/><path d="M30.26,31.4h1.5v3.3h3.1v1.5h-4.7a1.54,1.54,0,0,1-1.5-1.5V33A1.72,1.72,0,0,1,30.26,31.4Z" style="fill:#013d73;fill-rule:evenodd"/><path d="M66.06,31.4h-1.5v3.3h-3.1v1.5h4.6a1.47,1.47,0,0,0,1.5-1.44V33A1.57,1.57,0,0,0,66.06,31.4Z" style="fill:#013d73;fill-rule:evenodd"/><path d="M35,18.8H61.3a2,2,0,0,1,2,2v7.9h0A3.76,3.76,0,0,0,59.6,25H36.66A3.76,3.76,0,0,0,33,28.7h0V20.8A2,2,0,0,1,35,18.8Z" style="fill:#013d73;fill-rule:evenodd"/></svg>