<svg xmlns="http://www.w3.org/2000/svg" xmlns:xlink="http://www.w3.org/1999/xlink" viewBox="0 0 104.84 104.84"><defs><linearGradient id="a" x1="4003.14" y1="-6197.47" x2="4003.15" y2="-4827.47" gradientTransform="matrix(0.07, 0, 0, -0.07, -227.83, -334.79)" gradientUnits="userSpaceOnUse"><stop offset="0" stop-color="#0f994a"/><stop offset="0.3" stop-color="#f19526"/><stop offset="0.63" stop-color="#e41e24"/><stop offset="1" stop-color="#7d58a5"/></linearGradient></defs><title>IMAGE</title><rect width="104.84" height="104.84" style="fill:none"/><path d="M52.7,99.51a48,48,0,1,1,48-48A48,48,0,0,1,52.7,99.51Zm0-84.72h0A36.69,36.69,0,1,0,89.42,51.51,36.75,36.75,0,0,0,52.7,14.79Z" style="fill:url(#a)"/><path d="M52.7,20.74a30.17,30.17,0,0,0-17.38,5.4h5.61l5.39,9.32-5.39,9.32H30.13l-4.55-7.85A30.78,30.78,0,1,0,52.7,20.74ZM47.72,59h0l-4.06-6.93,4.06-7h8.06l4.07,7L55.78,59Zm19.34,9.82H61.81l-2.66-4.56,2.66-4.55h5.25l2.6,4.55Z" style="fill:#1a489e"/><path d="M21.3,43.45h6.87v4.06H27.05v7.71h1.12v4.14H21.3V55.22h1.12V47.51H21.3Zm22.71,0V59.36H39.45V51.09L36.51,55l-2.87-3.92v8.27H29.08V43.45h4.56l2.87,3.85,2.94-3.85Zm10.58,0L59.5,59.36H54.94l-.49-1.9H49.61l-.49,1.9H44.57l4.9-15.91ZM52.91,53,52,49.33,51.09,53Zm20.67-3.16v9.54H69.24v-.43a10.76,10.76,0,0,1-2.11.5A7.44,7.44,0,0,1,65,59.36a6.69,6.69,0,0,1-2.1-.64A8.89,8.89,0,0,1,61,57.46a8.46,8.46,0,0,1-2-2.52,9.31,9.31,0,0,1-.78-3,8.21,8.21,0,0,1,2-5.89,7.28,7.28,0,0,1,2.52-1.82A8.78,8.78,0,0,1,66,43.38a10.37,10.37,0,0,1,3.3.21A7.34,7.34,0,0,1,72.18,45l-2.94,3.36a4.29,4.29,0,0,0-3.3-.56,4.65,4.65,0,0,0-1.4.42,3.58,3.58,0,0,0-.91.84A5.18,5.18,0,0,0,63,50.32a4.76,4.76,0,0,0-.21,1.33A4.14,4.14,0,0,0,63.14,53,2.5,2.5,0,0,0,64,54.1a3,3,0,0,0,1.19.7,3.77,3.77,0,0,0,2.66-.21,2.33,2.33,0,0,0,1.2-.84l.07-.07h-2l.84-3.86Zm12,4.91v4.63h-11V43.45h11v4.62H79.19v1.4h5.32v3.86H79.19v1.4Z" style="fill:none;stroke:#fefefe;stroke-miterlimit:10;stroke-width:2.83469750151923px"/><path d="M21.3,43.45h6.87v4.06H27.05v7.71h1.12v4.14H21.3V55.22h1.12V47.51H21.3Zm22.71,0V59.36H39.45V51.09L36.51,55l-2.87-3.92v8.27H29.08V43.45h4.56l2.87,3.85,2.94-3.85Zm10.58,0L59.5,59.36H54.94l-.49-1.9H49.61l-.49,1.9H44.57l4.9-15.91ZM52.91,53,52,49.33,51.09,53Zm20.67-3.16v9.54H69.24v-.43a10.76,10.76,0,0,1-2.11.5A7.44,7.44,0,0,1,65,59.36a6.69,6.69,0,0,1-2.1-.64A8.89,8.89,0,0,1,61,57.46a8.46,8.46,0,0,1-2-2.52,9.31,9.31,0,0,1-.78-3,8.21,8.21,0,0,1,2-5.89,7.28,7.28,0,0,1,2.52-1.82A8.78,8.78,0,0,1,66,43.38a10.37,10.37,0,0,1,3.3.21A7.34,7.34,0,0,1,72.18,45l-2.94,3.36a4.29,4.29,0,0,0-3.3-.56,4.65,4.65,0,0,0-1.4.42,3.58,3.58,0,0,0-.91.84A5.18,5.18,0,0,0,63,50.32a4.76,4.76,0,0,0-.21,1.33A4.14,4.14,0,0,0,63.14,53,2.5,2.5,0,0,0,64,54.1a3,3,0,0,0,1.19.7,3.77,3.77,0,0,0,2.66-.21,2.33,2.33,0,0,0,1.2-.84l.07-.07h-2l.84-3.86Zm12,4.91v4.63h-11V43.45h11v4.62H79.19v1.4h5.32v3.86H79.19v1.4Z" style="fill:#201e1e"/></svg>