<svg xmlns="http://www.w3.org/2000/svg" viewBox="0 0 113.76 94.44"><title>PATROL</title><path d="M.75,53.33,12,61.16l6.06,3.48a84.81,84.81,0,0,0,38.21,10,78.73,78.73,0,0,0,21.42-3c.61-.17,1.18-.31,1.82-.53s1.29-.36,1.91-.59a98,98,0,0,0,22.64-11.14c3.23-2.16,5.87-4.27,8.51-6a58.46,58.46,0,0,0-4-7.25c-.79-1.19-1.48-2.16-2.34-3.29l-5.26-6c-4.12-4.11-11.46-9.38-16.63-11.52-6.21-2.56-9.66-4.2-17.23-5.29a65.21,65.21,0,0,0-25.47.89c-1.63.35-2.89.8-4.41,1.22a67,67,0,0,0-8.12,3.14,63.77,63.77,0,0,0-7.21,4.05c-1.17.78-2.22,1.47-3.34,2.29l-4.63,3.81L9.75,39.66A73.39,73.39,0,0,0,4.84,46,72.79,72.79,0,0,0,.75,53.33Z" style="fill-rule:evenodd"/><path d="M5.45,52.24c12.05-17.67,29.85-26,51.07-26.39,24.22-.44,40.86,10.37,52,26.88C94.2,62.85,76.33,71.52,57.13,72.1,43.84,72.5,20.47,64.91,5.45,52.24Z" style="fill:#fefefe;fill-rule:evenodd"/><path d="M33.12,49.27a21.36,21.36,0,0,0,5.36,14c3.56,4.23,9.2,6.82,14.7,7.51a16.83,16.83,0,0,0,3.76.08,22.7,22.7,0,0,0,3.77-.45A24.56,24.56,0,0,0,65,69.08a22.13,22.13,0,0,0,3.58-1.89A20.21,20.21,0,0,0,71,65.35a21,21,0,0,0,5.55-24.9,22.44,22.44,0,0,0-3.15-4.83c-.52-.54-.77-.95-1.32-1.49a6.22,6.22,0,0,0-.68-.57c-.35-.27-.43-.4-.74-.67a23.1,23.1,0,0,0-13.72-5.2c-4.11,0-7.35.3-10.89,2.08-5,2.49-8.44,5.57-10.9,10.68A21.17,21.17,0,0,0,33.12,49.27Z" style="fill:#d40000;fill-rule:evenodd"/><path d="M54.28,38.74c-5.32.81-10,5.36-9,11.7a10.59,10.59,0,0,0,12.2,8.62,10.31,10.31,0,0,0,8.83-11.67A10.51,10.51,0,0,0,54.28,38.74Z" style="fill-rule:evenodd"/></svg>