<svg xmlns="http://www.w3.org/2000/svg" viewBox="0 0 86.85 68.36"><title>PEOPLE</title><path d="M27,68.35H60V39.4h0v-.76a16.5,16.5,0,0,0-33,0c0,.29.09.47.09.76H27Z" style="fill:#031c36;fill-rule:evenodd"/><circle cx="43.61" cy="10.44" r="10.43" style="fill:#031c36"/><path d="M11.28,62.14H24.44V36.29h.09a10.27,10.27,0,0,1,2-5.26,10.44,10.44,0,0,0-3.86-.66A11.26,11.26,0,0,0,11.28,41.56V42h0Z" style="fill:#8fa830;fill-rule:evenodd"/><circle cx="23.59" cy="19.94" r="7.24" style="fill:#8fa830"/><path d="M0,56H9.12V38.17h.09a6.94,6.94,0,0,1,1.41-3.76,8.72,8.72,0,0,0-2.72-.47A7.86,7.86,0,0,0,0,41.74v.38H0Z" style="fill:#b61e24;fill-rule:evenodd"/><circle cx="8.55" cy="26.8" r="4.98" style="fill:#b61e24"/><path d="M75.57,62.14H62.41V36.29h-.09a11.13,11.13,0,0,0-2-5.26,9.92,9.92,0,0,1,3.76-.66A11.27,11.27,0,0,1,75.57,41.56V42h0Z" style="fill:#8fa830;fill-rule:evenodd"/><circle cx="63.26" cy="19.94" r="7.24" style="fill:#8fa830"/><path d="M86.85,56H77.73V38.17h-.09a8.75,8.75,0,0,0-1.41-3.76,8.22,8.22,0,0,1,2.63-.47,7.88,7.88,0,0,1,8,7.8v.38h0Z" style="fill:#b61e24;fill-rule:evenodd"/><circle cx="78.3" cy="26.8" r="4.98" style="fill:#b61e24"/></svg>